<mxfile host="app.diagrams.net" modified="2023-05-11T20:35:04.725Z" agent="Mozilla/5.0 (Windows NT 10.0; Win64; x64) AppleWebKit/537.36 (KHTML, like Gecko) Chrome/113.0.0.0 Safari/537.36" etag="XFOlzhcPXLdqOiAucRPk" version="21.2.9" type="device">
  <diagram name="PÃ¡gina-1" id="CpuVKc3Z3gT7st1ZDinv">
    <mxGraphModel dx="1434" dy="796" grid="1" gridSize="10" guides="1" tooltips="1" connect="1" arrows="1" fold="1" page="1" pageScale="1" pageWidth="827" pageHeight="1169" math="0" shadow="0">
      <root>
        <mxCell id="0" />
        <mxCell id="1" parent="0" />
        <mxCell id="t0NuIf96gTucgw6YyUh--92" style="edgeStyle=orthogonalEdgeStyle;rounded=0;orthogonalLoop=1;jettySize=auto;html=1;exitX=1;exitY=0.75;exitDx=0;exitDy=0;endArrow=none;endFill=0;" parent="1" source="Jkc8xZQz6sf0sFc0_8F7-2" target="t0NuIf96gTucgw6YyUh--40" edge="1">
          <mxGeometry relative="1" as="geometry">
            <Array as="points">
              <mxPoint x="310" y="630" />
              <mxPoint x="650" y="630" />
              <mxPoint x="650" y="735" />
            </Array>
          </mxGeometry>
        </mxCell>
        <mxCell id="KLFE64AuCai8vggJglis-8" style="edgeStyle=orthogonalEdgeStyle;rounded=0;orthogonalLoop=1;jettySize=auto;html=1;entryX=1;entryY=0.5;entryDx=0;entryDy=0;endArrow=none;endFill=0;" edge="1" parent="1" source="Jkc8xZQz6sf0sFc0_8F7-2" target="Jkc8xZQz6sf0sFc0_8F7-5">
          <mxGeometry relative="1" as="geometry" />
        </mxCell>
        <mxCell id="KLFE64AuCai8vggJglis-9" style="edgeStyle=orthogonalEdgeStyle;rounded=0;orthogonalLoop=1;jettySize=auto;html=1;entryX=1;entryY=0.5;entryDx=0;entryDy=0;endArrow=none;endFill=0;" edge="1" parent="1" source="Jkc8xZQz6sf0sFc0_8F7-2" target="Jkc8xZQz6sf0sFc0_8F7-3">
          <mxGeometry relative="1" as="geometry" />
        </mxCell>
        <mxCell id="KLFE64AuCai8vggJglis-10" style="edgeStyle=orthogonalEdgeStyle;rounded=0;orthogonalLoop=1;jettySize=auto;html=1;entryX=1;entryY=0.5;entryDx=0;entryDy=0;endArrow=none;endFill=0;" edge="1" parent="1" source="Jkc8xZQz6sf0sFc0_8F7-2" target="Jkc8xZQz6sf0sFc0_8F7-9">
          <mxGeometry relative="1" as="geometry" />
        </mxCell>
        <mxCell id="Jkc8xZQz6sf0sFc0_8F7-2" value="product" style="rounded=0;whiteSpace=wrap;html=1;" parent="1" vertex="1">
          <mxGeometry x="190" y="600" width="120" height="60" as="geometry" />
        </mxCell>
        <mxCell id="Jkc8xZQz6sf0sFc0_8F7-3" value="ID" style="ellipse;whiteSpace=wrap;html=1;align=center;fontStyle=4;" parent="1" vertex="1">
          <mxGeometry x="20" y="550" width="100" height="40" as="geometry" />
        </mxCell>
        <mxCell id="Jkc8xZQz6sf0sFc0_8F7-5" value="name" style="ellipse;whiteSpace=wrap;html=1;align=center;" parent="1" vertex="1">
          <mxGeometry x="20" y="610" width="100" height="40" as="geometry" />
        </mxCell>
        <mxCell id="KLFE64AuCai8vggJglis-4" style="edgeStyle=orthogonalEdgeStyle;rounded=0;orthogonalLoop=1;jettySize=auto;html=1;endArrow=none;endFill=0;" edge="1" parent="1" source="Jkc8xZQz6sf0sFc0_8F7-7">
          <mxGeometry relative="1" as="geometry">
            <mxPoint x="463.5" y="380" as="targetPoint" />
          </mxGeometry>
        </mxCell>
        <mxCell id="Jkc8xZQz6sf0sFc0_8F7-7" value="bottle_cost" style="ellipse;whiteSpace=wrap;html=1;align=center;" parent="1" vertex="1">
          <mxGeometry x="414" y="320" width="100" height="40" as="geometry" />
        </mxCell>
        <mxCell id="Jkc8xZQz6sf0sFc0_8F7-9" value="volume" style="ellipse;whiteSpace=wrap;html=1;align=center;" parent="1" vertex="1">
          <mxGeometry x="20" y="675" width="100" height="40" as="geometry" />
        </mxCell>
        <mxCell id="Jkc8xZQz6sf0sFc0_8F7-75" style="edgeStyle=orthogonalEdgeStyle;rounded=0;orthogonalLoop=1;jettySize=auto;html=1;exitX=0;exitY=0.5;exitDx=0;exitDy=0;endArrow=none;endFill=0;" parent="1" source="Jkc8xZQz6sf0sFc0_8F7-11" target="Jkc8xZQz6sf0sFc0_8F7-74" edge="1">
          <mxGeometry relative="1" as="geometry" />
        </mxCell>
        <mxCell id="KLFE64AuCai8vggJglis-14" style="edgeStyle=orthogonalEdgeStyle;rounded=0;orthogonalLoop=1;jettySize=auto;html=1;entryX=0;entryY=0.5;entryDx=0;entryDy=0;endArrow=none;endFill=0;" edge="1" parent="1" source="Jkc8xZQz6sf0sFc0_8F7-11" target="Jkc8xZQz6sf0sFc0_8F7-15">
          <mxGeometry relative="1" as="geometry" />
        </mxCell>
        <mxCell id="KLFE64AuCai8vggJglis-15" style="edgeStyle=orthogonalEdgeStyle;rounded=0;orthogonalLoop=1;jettySize=auto;html=1;entryX=0;entryY=0.5;entryDx=0;entryDy=0;endArrow=none;endFill=0;" edge="1" parent="1" source="Jkc8xZQz6sf0sFc0_8F7-11" target="Jkc8xZQz6sf0sFc0_8F7-25">
          <mxGeometry relative="1" as="geometry" />
        </mxCell>
        <mxCell id="KLFE64AuCai8vggJglis-16" style="edgeStyle=orthogonalEdgeStyle;rounded=0;orthogonalLoop=1;jettySize=auto;html=1;entryX=0;entryY=0.5;entryDx=0;entryDy=0;endArrow=none;endFill=0;" edge="1" parent="1" source="Jkc8xZQz6sf0sFc0_8F7-11" target="Jkc8xZQz6sf0sFc0_8F7-22">
          <mxGeometry relative="1" as="geometry" />
        </mxCell>
        <mxCell id="Jkc8xZQz6sf0sFc0_8F7-11" value="store" style="whiteSpace=wrap;html=1;align=center;" parent="1" vertex="1">
          <mxGeometry x="1000" y="410" width="100" height="40" as="geometry" />
        </mxCell>
        <mxCell id="Jkc8xZQz6sf0sFc0_8F7-15" value="name" style="ellipse;whiteSpace=wrap;html=1;align=center;" parent="1" vertex="1">
          <mxGeometry x="1170" y="410" width="100" height="40" as="geometry" />
        </mxCell>
        <mxCell id="Jkc8xZQz6sf0sFc0_8F7-22" value="address" style="ellipse;whiteSpace=wrap;html=1;align=center;" parent="1" vertex="1">
          <mxGeometry x="1171" y="470" width="100" height="40" as="geometry" />
        </mxCell>
        <mxCell id="Jkc8xZQz6sf0sFc0_8F7-62" style="edgeStyle=orthogonalEdgeStyle;rounded=0;orthogonalLoop=1;jettySize=auto;html=1;exitX=1;exitY=0.5;exitDx=0;exitDy=0;endArrow=none;endFill=0;" parent="1" source="Jkc8xZQz6sf0sFc0_8F7-23" target="Jkc8xZQz6sf0sFc0_8F7-31" edge="1">
          <mxGeometry relative="1" as="geometry" />
        </mxCell>
        <mxCell id="t0NuIf96gTucgw6YyUh--49" style="edgeStyle=orthogonalEdgeStyle;rounded=0;orthogonalLoop=1;jettySize=auto;html=1;exitX=0;exitY=0.5;exitDx=0;exitDy=0;entryX=1;entryY=0.5;entryDx=0;entryDy=0;endArrow=none;endFill=0;startArrow=classic;startFill=1;" parent="1" source="Jkc8xZQz6sf0sFc0_8F7-23" target="t0NuIf96gTucgw6YyUh--34" edge="1">
          <mxGeometry relative="1" as="geometry" />
        </mxCell>
        <mxCell id="t0NuIf96gTucgw6YyUh--90" style="edgeStyle=orthogonalEdgeStyle;rounded=0;orthogonalLoop=1;jettySize=auto;html=1;exitX=0.5;exitY=1;exitDx=0;exitDy=0;endArrow=none;endFill=0;startArrow=none;startFill=0;" parent="1" source="Jkc8xZQz6sf0sFc0_8F7-23" target="t0NuIf96gTucgw6YyUh--37" edge="1">
          <mxGeometry relative="1" as="geometry">
            <Array as="points">
              <mxPoint x="1350" y="360" />
            </Array>
          </mxGeometry>
        </mxCell>
        <mxCell id="Jkc8xZQz6sf0sFc0_8F7-23" value="city" style="whiteSpace=wrap;html=1;align=center;" parent="1" vertex="1">
          <mxGeometry x="1300" y="230" width="100" height="40" as="geometry" />
        </mxCell>
        <mxCell id="Jkc8xZQz6sf0sFc0_8F7-25" value="ID" style="ellipse;whiteSpace=wrap;html=1;align=center;fontStyle=4;" parent="1" vertex="1">
          <mxGeometry x="1171" y="350" width="100" height="40" as="geometry" />
        </mxCell>
        <mxCell id="t0NuIf96gTucgw6YyUh--33" style="edgeStyle=orthogonalEdgeStyle;rounded=0;orthogonalLoop=1;jettySize=auto;html=1;exitX=0;exitY=0.5;exitDx=0;exitDy=0;entryX=1;entryY=0.5;entryDx=0;entryDy=0;endArrow=none;endFill=0;" parent="1" source="Jkc8xZQz6sf0sFc0_8F7-29" target="Jkc8xZQz6sf0sFc0_8F7-23" edge="1">
          <mxGeometry relative="1" as="geometry" />
        </mxCell>
        <mxCell id="Jkc8xZQz6sf0sFc0_8F7-29" value="zip_code" style="ellipse;shape=doubleEllipse;margin=3;whiteSpace=wrap;html=1;align=center;" parent="1" vertex="1">
          <mxGeometry x="1470" y="260" width="100" height="40" as="geometry" />
        </mxCell>
        <mxCell id="Jkc8xZQz6sf0sFc0_8F7-31" value="name" style="ellipse;whiteSpace=wrap;html=1;align=center;fontStyle=4;" parent="1" vertex="1">
          <mxGeometry x="1470" y="200" width="100" height="40" as="geometry" />
        </mxCell>
        <mxCell id="Jkc8xZQz6sf0sFc0_8F7-67" style="edgeStyle=orthogonalEdgeStyle;rounded=0;orthogonalLoop=1;jettySize=auto;html=1;endArrow=none;endFill=0;" parent="1" source="Jkc8xZQz6sf0sFc0_8F7-32" target="Jkc8xZQz6sf0sFc0_8F7-34" edge="1">
          <mxGeometry relative="1" as="geometry" />
        </mxCell>
        <mxCell id="Jkc8xZQz6sf0sFc0_8F7-68" style="edgeStyle=orthogonalEdgeStyle;rounded=0;orthogonalLoop=1;jettySize=auto;html=1;endArrow=none;endFill=0;" parent="1" source="Jkc8xZQz6sf0sFc0_8F7-32" target="Jkc8xZQz6sf0sFc0_8F7-36" edge="1">
          <mxGeometry relative="1" as="geometry" />
        </mxCell>
        <mxCell id="Jkc8xZQz6sf0sFc0_8F7-32" value="county" style="whiteSpace=wrap;html=1;align=center;" parent="1" vertex="1">
          <mxGeometry x="1470" y="465" width="100" height="40" as="geometry" />
        </mxCell>
        <mxCell id="Jkc8xZQz6sf0sFc0_8F7-34" value="name" style="ellipse;whiteSpace=wrap;html=1;align=center;" parent="1" vertex="1">
          <mxGeometry x="1410" y="545" width="100" height="40" as="geometry" />
        </mxCell>
        <mxCell id="Jkc8xZQz6sf0sFc0_8F7-36" value="ID" style="ellipse;whiteSpace=wrap;html=1;align=center;fontStyle=4;" parent="1" vertex="1">
          <mxGeometry x="1530" y="545" width="100" height="40" as="geometry" />
        </mxCell>
        <mxCell id="Jkc8xZQz6sf0sFc0_8F7-38" style="edgeStyle=orthogonalEdgeStyle;rounded=0;orthogonalLoop=1;jettySize=auto;html=1;exitX=0.5;exitY=1;exitDx=0;exitDy=0;" parent="1" source="Jkc8xZQz6sf0sFc0_8F7-32" target="Jkc8xZQz6sf0sFc0_8F7-32" edge="1">
          <mxGeometry relative="1" as="geometry" />
        </mxCell>
        <mxCell id="t0NuIf96gTucgw6YyUh--44" style="edgeStyle=orthogonalEdgeStyle;rounded=0;orthogonalLoop=1;jettySize=auto;html=1;exitX=0;exitY=0.5;exitDx=0;exitDy=0;entryX=0.5;entryY=0.5;entryDx=0;entryDy=0;entryPerimeter=0;endArrow=none;endFill=0;startArrow=classic;startFill=1;" parent="1" source="Jkc8xZQz6sf0sFc0_8F7-42" target="t0NuIf96gTucgw6YyUh--43" edge="1">
          <mxGeometry relative="1" as="geometry" />
        </mxCell>
        <mxCell id="t0NuIf96gTucgw6YyUh--87" style="edgeStyle=orthogonalEdgeStyle;rounded=0;orthogonalLoop=1;jettySize=auto;html=1;exitX=1;exitY=0.5;exitDx=0;exitDy=0;endArrow=none;endFill=0;" parent="1" source="Jkc8xZQz6sf0sFc0_8F7-42" target="Jkc8xZQz6sf0sFc0_8F7-43" edge="1">
          <mxGeometry relative="1" as="geometry">
            <Array as="points">
              <mxPoint x="500" y="865" />
              <mxPoint x="500" y="900" />
            </Array>
          </mxGeometry>
        </mxCell>
        <mxCell id="t0NuIf96gTucgw6YyUh--88" style="edgeStyle=orthogonalEdgeStyle;rounded=0;orthogonalLoop=1;jettySize=auto;html=1;exitX=1;exitY=0.5;exitDx=0;exitDy=0;endArrow=none;endFill=0;" parent="1" source="Jkc8xZQz6sf0sFc0_8F7-42" target="Jkc8xZQz6sf0sFc0_8F7-44" edge="1">
          <mxGeometry relative="1" as="geometry">
            <Array as="points">
              <mxPoint x="500" y="865" />
              <mxPoint x="500" y="835" />
            </Array>
          </mxGeometry>
        </mxCell>
        <mxCell id="Jkc8xZQz6sf0sFc0_8F7-42" value="category" style="whiteSpace=wrap;html=1;align=center;" parent="1" vertex="1">
          <mxGeometry x="360" y="845" width="100" height="40" as="geometry" />
        </mxCell>
        <mxCell id="Jkc8xZQz6sf0sFc0_8F7-43" value="name" style="ellipse;whiteSpace=wrap;html=1;align=center;" parent="1" vertex="1">
          <mxGeometry x="530" y="880" width="100" height="40" as="geometry" />
        </mxCell>
        <mxCell id="Jkc8xZQz6sf0sFc0_8F7-44" value="ID" style="ellipse;whiteSpace=wrap;html=1;align=center;fontStyle=4;" parent="1" vertex="1">
          <mxGeometry x="530" y="815" width="100" height="40" as="geometry" />
        </mxCell>
        <mxCell id="Jkc8xZQz6sf0sFc0_8F7-45" style="edgeStyle=orthogonalEdgeStyle;rounded=0;orthogonalLoop=1;jettySize=auto;html=1;exitX=0.5;exitY=1;exitDx=0;exitDy=0;" parent="1" source="Jkc8xZQz6sf0sFc0_8F7-42" target="Jkc8xZQz6sf0sFc0_8F7-42" edge="1">
          <mxGeometry relative="1" as="geometry" />
        </mxCell>
        <mxCell id="Jkc8xZQz6sf0sFc0_8F7-65" style="edgeStyle=orthogonalEdgeStyle;rounded=0;orthogonalLoop=1;jettySize=auto;html=1;exitX=1;exitY=0.5;exitDx=0;exitDy=0;endArrow=none;endFill=0;" parent="1" source="Jkc8xZQz6sf0sFc0_8F7-48" target="Jkc8xZQz6sf0sFc0_8F7-50" edge="1">
          <mxGeometry relative="1" as="geometry" />
        </mxCell>
        <mxCell id="Jkc8xZQz6sf0sFc0_8F7-66" style="edgeStyle=orthogonalEdgeStyle;rounded=0;orthogonalLoop=1;jettySize=auto;html=1;exitX=1;exitY=0.5;exitDx=0;exitDy=0;endArrow=none;endFill=0;" parent="1" source="Jkc8xZQz6sf0sFc0_8F7-48" target="Jkc8xZQz6sf0sFc0_8F7-49" edge="1">
          <mxGeometry relative="1" as="geometry" />
        </mxCell>
        <mxCell id="t0NuIf96gTucgw6YyUh--60" style="edgeStyle=orthogonalEdgeStyle;rounded=0;orthogonalLoop=1;jettySize=auto;html=1;exitX=0.5;exitY=0;exitDx=0;exitDy=0;endArrow=none;endFill=0;" parent="1" source="Jkc8xZQz6sf0sFc0_8F7-48" target="t0NuIf96gTucgw6YyUh--59" edge="1">
          <mxGeometry relative="1" as="geometry">
            <Array as="points">
              <mxPoint x="1050" y="715" />
            </Array>
          </mxGeometry>
        </mxCell>
        <mxCell id="t0NuIf96gTucgw6YyUh--84" style="edgeStyle=orthogonalEdgeStyle;rounded=0;orthogonalLoop=1;jettySize=auto;html=1;exitX=0;exitY=0.5;exitDx=0;exitDy=0;endArrow=none;endFill=0;startArrow=classic;startFill=1;" parent="1" source="Jkc8xZQz6sf0sFc0_8F7-48" target="t0NuIf96gTucgw6YyUh--40" edge="1">
          <mxGeometry relative="1" as="geometry" />
        </mxCell>
        <mxCell id="Jkc8xZQz6sf0sFc0_8F7-48" value="vendor" style="whiteSpace=wrap;html=1;align=center;" parent="1" vertex="1">
          <mxGeometry x="1001" y="715" width="100" height="40" as="geometry" />
        </mxCell>
        <mxCell id="Jkc8xZQz6sf0sFc0_8F7-49" value="name" style="ellipse;whiteSpace=wrap;html=1;align=center;" parent="1" vertex="1">
          <mxGeometry x="1171" y="745" width="100" height="40" as="geometry" />
        </mxCell>
        <mxCell id="Jkc8xZQz6sf0sFc0_8F7-50" value="ID" style="ellipse;whiteSpace=wrap;html=1;align=center;fontStyle=4;" parent="1" vertex="1">
          <mxGeometry x="1171" y="685" width="100" height="40" as="geometry" />
        </mxCell>
        <mxCell id="Jkc8xZQz6sf0sFc0_8F7-51" style="edgeStyle=orthogonalEdgeStyle;rounded=0;orthogonalLoop=1;jettySize=auto;html=1;exitX=0.5;exitY=1;exitDx=0;exitDy=0;" parent="1" source="Jkc8xZQz6sf0sFc0_8F7-48" target="Jkc8xZQz6sf0sFc0_8F7-48" edge="1">
          <mxGeometry relative="1" as="geometry" />
        </mxCell>
        <mxCell id="KLFE64AuCai8vggJglis-1" style="edgeStyle=orthogonalEdgeStyle;rounded=0;orthogonalLoop=1;jettySize=auto;html=1;endArrow=none;endFill=0;" edge="1" parent="1" source="Jkc8xZQz6sf0sFc0_8F7-52">
          <mxGeometry relative="1" as="geometry">
            <mxPoint x="580" y="390" as="targetPoint" />
          </mxGeometry>
        </mxCell>
        <mxCell id="Jkc8xZQz6sf0sFc0_8F7-52" value="bottle_retail" style="ellipse;whiteSpace=wrap;html=1;align=center;" parent="1" vertex="1">
          <mxGeometry x="530" y="320" width="100" height="40" as="geometry" />
        </mxCell>
        <mxCell id="Jkc8xZQz6sf0sFc0_8F7-76" style="edgeStyle=orthogonalEdgeStyle;rounded=0;orthogonalLoop=1;jettySize=auto;html=1;exitX=0;exitY=0.5;exitDx=0;exitDy=0;endArrow=none;endFill=0;" parent="1" source="Jkc8xZQz6sf0sFc0_8F7-74" target="Jkc8xZQz6sf0sFc0_8F7-2" edge="1">
          <mxGeometry relative="1" as="geometry" />
        </mxCell>
        <mxCell id="t0NuIf96gTucgw6YyUh--54" style="edgeStyle=orthogonalEdgeStyle;rounded=0;orthogonalLoop=1;jettySize=auto;html=1;exitX=0.5;exitY=0;exitDx=0;exitDy=0;endArrow=none;endFill=0;" parent="1" source="Jkc8xZQz6sf0sFc0_8F7-74" target="t0NuIf96gTucgw6YyUh--52" edge="1">
          <mxGeometry relative="1" as="geometry" />
        </mxCell>
        <mxCell id="t0NuIf96gTucgw6YyUh--55" style="edgeStyle=orthogonalEdgeStyle;rounded=0;orthogonalLoop=1;jettySize=auto;html=1;exitX=0.5;exitY=0;exitDx=0;exitDy=0;endArrow=none;endFill=0;" parent="1" source="Jkc8xZQz6sf0sFc0_8F7-74" target="t0NuIf96gTucgw6YyUh--53" edge="1">
          <mxGeometry relative="1" as="geometry" />
        </mxCell>
        <mxCell id="t0NuIf96gTucgw6YyUh--56" style="edgeStyle=orthogonalEdgeStyle;rounded=0;orthogonalLoop=1;jettySize=auto;html=1;exitX=0.5;exitY=0;exitDx=0;exitDy=0;endArrow=none;endFill=0;" parent="1" source="Jkc8xZQz6sf0sFc0_8F7-74" target="t0NuIf96gTucgw6YyUh--18" edge="1">
          <mxGeometry relative="1" as="geometry" />
        </mxCell>
        <mxCell id="t0NuIf96gTucgw6YyUh--57" style="edgeStyle=orthogonalEdgeStyle;rounded=0;orthogonalLoop=1;jettySize=auto;html=1;exitX=0.5;exitY=0;exitDx=0;exitDy=0;endArrow=none;endFill=0;entryX=0.5;entryY=1;entryDx=0;entryDy=0;" parent="1" source="Jkc8xZQz6sf0sFc0_8F7-74" target="2L22MfxqgFXWV3jHa0Rr-5" edge="1">
          <mxGeometry relative="1" as="geometry">
            <mxPoint x="770" y="360" as="targetPoint" />
          </mxGeometry>
        </mxCell>
        <mxCell id="t0NuIf96gTucgw6YyUh--58" style="edgeStyle=orthogonalEdgeStyle;rounded=0;orthogonalLoop=1;jettySize=auto;html=1;exitX=0.5;exitY=0;exitDx=0;exitDy=0;endArrow=none;endFill=0;" parent="1" source="Jkc8xZQz6sf0sFc0_8F7-74" target="t0NuIf96gTucgw6YyUh--25" edge="1">
          <mxGeometry relative="1" as="geometry" />
        </mxCell>
        <mxCell id="Jkc8xZQz6sf0sFc0_8F7-74" value="sells" style="shape=rhombus;perimeter=rhombusPerimeter;whiteSpace=wrap;html=1;align=center;" parent="1" vertex="1">
          <mxGeometry x="520" y="400" width="120" height="60" as="geometry" />
        </mxCell>
        <mxCell id="t0NuIf96gTucgw6YyUh--18" value="bottles_sold" style="ellipse;whiteSpace=wrap;html=1;align=center;" parent="1" vertex="1">
          <mxGeometry x="650" y="320" width="100" height="40" as="geometry" />
        </mxCell>
        <mxCell id="t0NuIf96gTucgw6YyUh--25" value="earnings" style="ellipse;whiteSpace=wrap;html=1;align=center;dashed=1;" parent="1" vertex="1">
          <mxGeometry x="890" y="320" width="100" height="40" as="geometry" />
        </mxCell>
        <mxCell id="t0NuIf96gTucgw6YyUh--64" style="edgeStyle=orthogonalEdgeStyle;rounded=0;orthogonalLoop=1;jettySize=auto;html=1;exitX=0;exitY=0.5;exitDx=0;exitDy=0;entryX=0.5;entryY=0;entryDx=0;entryDy=0;endArrow=none;endFill=0;" parent="1" source="t0NuIf96gTucgw6YyUh--34" target="Jkc8xZQz6sf0sFc0_8F7-11" edge="1">
          <mxGeometry relative="1" as="geometry">
            <Array as="points">
              <mxPoint x="1050" y="300" />
              <mxPoint x="1050" y="300" />
            </Array>
          </mxGeometry>
        </mxCell>
        <mxCell id="t0NuIf96gTucgw6YyUh--34" value="locates" style="shape=rhombus;perimeter=rhombusPerimeter;whiteSpace=wrap;html=1;align=center;" parent="1" vertex="1">
          <mxGeometry x="1111" y="220" width="120" height="60" as="geometry" />
        </mxCell>
        <mxCell id="t0NuIf96gTucgw6YyUh--40" value="produces" style="shape=rhombus;perimeter=rhombusPerimeter;whiteSpace=wrap;html=1;align=center;" parent="1" vertex="1">
          <mxGeometry x="740" y="705" width="120" height="60" as="geometry" />
        </mxCell>
        <mxCell id="t0NuIf96gTucgw6YyUh--46" style="edgeStyle=orthogonalEdgeStyle;rounded=0;orthogonalLoop=1;jettySize=auto;html=1;exitX=0.5;exitY=0;exitDx=0;exitDy=0;endArrow=none;endFill=0;" parent="1" source="t0NuIf96gTucgw6YyUh--43" target="Jkc8xZQz6sf0sFc0_8F7-2" edge="1">
          <mxGeometry relative="1" as="geometry" />
        </mxCell>
        <mxCell id="t0NuIf96gTucgw6YyUh--43" value="has" style="shape=rhombus;perimeter=rhombusPerimeter;whiteSpace=wrap;html=1;align=center;" parent="1" vertex="1">
          <mxGeometry x="190" y="760" width="120" height="60" as="geometry" />
        </mxCell>
        <mxCell id="t0NuIf96gTucgw6YyUh--52" value="invoice" style="ellipse;whiteSpace=wrap;html=1;align=center;fontStyle=4;" parent="1" vertex="1">
          <mxGeometry x="180" y="320" width="100" height="40" as="geometry" />
        </mxCell>
        <mxCell id="t0NuIf96gTucgw6YyUh--53" value="date" style="ellipse;whiteSpace=wrap;html=1;align=center;" parent="1" vertex="1">
          <mxGeometry x="300" y="320" width="100" height="40" as="geometry" />
        </mxCell>
        <mxCell id="t0NuIf96gTucgw6YyUh--61" style="edgeStyle=orthogonalEdgeStyle;rounded=0;orthogonalLoop=1;jettySize=auto;html=1;exitX=0.5;exitY=0;exitDx=0;exitDy=0;endArrow=none;endFill=0;" parent="1" source="t0NuIf96gTucgw6YyUh--59" target="Jkc8xZQz6sf0sFc0_8F7-11" edge="1">
          <mxGeometry relative="1" as="geometry" />
        </mxCell>
        <mxCell id="t0NuIf96gTucgw6YyUh--59" value="provides" style="shape=rhombus;perimeter=rhombusPerimeter;whiteSpace=wrap;html=1;align=center;" parent="1" vertex="1">
          <mxGeometry x="990" y="545" width="120" height="60" as="geometry" />
        </mxCell>
        <mxCell id="t0NuIf96gTucgw6YyUh--91" style="edgeStyle=orthogonalEdgeStyle;rounded=0;orthogonalLoop=1;jettySize=auto;html=1;exitX=0.5;exitY=1;exitDx=0;exitDy=0;endArrow=classic;endFill=1;startArrow=none;startFill=0;" parent="1" source="t0NuIf96gTucgw6YyUh--37" target="Jkc8xZQz6sf0sFc0_8F7-32" edge="1">
          <mxGeometry relative="1" as="geometry" />
        </mxCell>
        <mxCell id="t0NuIf96gTucgw6YyUh--37" value="contained" style="shape=rhombus;perimeter=rhombusPerimeter;whiteSpace=wrap;html=1;align=center;" parent="1" vertex="1">
          <mxGeometry x="1460" y="330" width="120" height="60" as="geometry" />
        </mxCell>
        <mxCell id="2L22MfxqgFXWV3jHa0Rr-5" value="sale" style="ellipse;whiteSpace=wrap;html=1;align=center;" parent="1" vertex="1">
          <mxGeometry x="770" y="320" width="100" height="40" as="geometry" />
        </mxCell>
      </root>
    </mxGraphModel>
  </diagram>
</mxfile>
